<svg width="14" height="14" viewBox="0 0 14 14" fill="none" xmlns="http://www.w3.org/2000/svg">
<g opacity="0.8" clip-path="url(#clip0_2037_1516)">
<path fill-rule="evenodd" clip-rule="evenodd" d="M2.25806 4.01862C2.25806 4.01862 4.21306 2.82273 7 2.82273C9.78694 2.82273 11.7419 4.01862 11.7419 4.01862C10.6708 3.06192 8.79902 2.51076 8.79902 2.51076L8.97582 2.33398C10.7332 2.36518 12.3243 3.58186 12.3243 3.58186C14.1129 7.31509 13.9985 10.5388 13.9985 10.5388C12.5427 12.421 10.3797 12.2858 10.3797 12.2858L9.64134 11.3499C10.9412 11.0691 11.7627 9.91484 11.7627 9.91484C11.7627 9.91484 9.80773 11.2459 7 11.2459C4.19227 11.2459 2.23727 9.91484 2.23727 9.91484C2.23727 9.91484 3.05877 11.0691 4.35866 11.3499L3.62032 12.2858C3.62032 12.2858 1.45735 12.421 0.00147075 10.5388C0.00147075 10.5388 -0.11291 7.31509 1.67572 3.58186C1.67572 3.58186 3.26677 2.36518 5.02418 2.33398L5.20098 2.51076C5.20098 2.51076 3.32916 3.06192 2.25806 4.01862ZM6.06409 8.08463C6.0745 7.35669 5.52334 6.76395 4.84741 6.76395C4.17148 6.76395 3.64113 7.35669 3.64113 8.08463C3.64113 8.80216 4.18187 9.40529 4.84741 9.40529C5.52334 9.40529 6.06409 8.80216 6.06409 8.08463ZM10.4005 8.08463C10.4005 7.35669 9.85971 6.76395 9.18379 6.76395C8.50786 6.76395 7.97751 7.35669 7.97751 8.08463C7.97751 8.80216 8.51824 9.40529 9.18379 9.40529C9.85971 9.40529 10.4005 8.80216 10.4005 8.08463Z" fill="#616161"/>
</g>
<defs>
<clipPath id="clip0_2037_1516">
<rect width="14" height="14" fill="white"/>
</clipPath>
</defs>
</svg>
