<svg width="14" height="14" viewBox="0 0 14 14" fill="none" xmlns="http://www.w3.org/2000/svg">
<g opacity="0.8">
<path d="M13.611 5.63802L7.9235 0.971354C7.43739 0.582465 6.611 0.582465 6.12489 0.971354L0.38878 5.68663C0.194336 5.78385 0.145725 6.02691 0.242947 6.22135C0.291558 6.4158 0.486003 6.51302 0.680447 6.51302H1.16656V12.0547C1.16656 12.7839 1.70128 13.3186 2.43045 13.3186H5.54156C5.83322 13.3186 6.02767 13.1241 6.02767 12.8325V10.5964C6.02767 10.2561 6.56239 9.9158 6.99989 9.9158C7.43739 9.9158 8.02072 10.2561 8.02072 10.5964V12.8325C8.02072 13.1241 8.21517 13.3186 8.50684 13.3186H11.6666C12.3957 13.3186 12.8818 12.8325 12.8818 12.0547V6.51302H13.3679C13.5624 6.51302 13.7568 6.36719 13.8054 6.17274C13.8541 5.9783 13.8054 5.78385 13.611 5.63802Z" fill="#616161"/>
</g>
</svg>
