<?xml version="1.0" encoding="utf-8"?>
<!-- Generator: Adobe Illustrator 16.0.0, SVG Export Plug-In . SVG Version: 6.00 Build 0)  -->
<!DOCTYPE svg PUBLIC "-//W3C//DTD SVG 1.1//EN" "http://www.w3.org/Graphics/SVG/1.1/DTD/svg11.dtd" [
	<!ENTITY st0 "clip-path:url(#SVGID_29_);fill:url(#SVGID_30_);">
	<!ENTITY st1 "clip-path:url(#SVGID_44_);fill:url(#SVGID_45_);">
	<!ENTITY st2 "clip-path:url(#SVGID_47_);fill:url(#SVGID_48_);">
	<!ENTITY st3 "clip-path:url(#SVGID_2_);fill:url(#SVGID_3_);">
	<!ENTITY st4 "clip-path:url(#SVGID_11_);fill:url(#SVGID_12_);">
	<!ENTITY st5 "clip-path:url(#SVGID_14_);fill:url(#SVGID_15_);">
	<!ENTITY st6 "clip-path:url(#SVGID_5_);fill:url(#SVGID_6_);">
	<!ENTITY st7 "clip-path:url(#SVGID_17_);fill:url(#SVGID_18_);">
	<!ENTITY st8 "clip-path:url(#SVGID_32_);fill:url(#SVGID_33_);">
	<!ENTITY st9 "clip-path:url(#SVGID_35_);fill:url(#SVGID_36_);">
	<!ENTITY st10 "clip-path:url(#SVGID_50_);fill:url(#SVGID_51_);">
	<!ENTITY st11 "clip-path:url(#SVGID_38_);fill:url(#SVGID_39_);">
	<!ENTITY st12 "clip-path:url(#SVGID_53_);fill:url(#SVGID_54_);">
	<!ENTITY st13 "clip-path:url(#SVGID_56_);fill:url(#SVGID_57_);">
	<!ENTITY st14 "clip-path:url(#SVGID_59_);fill:url(#SVGID_60_);">
	<!ENTITY st15 "clip-path:url(#SVGID_8_);fill:url(#SVGID_9_);">
	<!ENTITY st16 "clip-path:url(#SVGID_20_);fill:url(#SVGID_21_);">
	<!ENTITY st17 "clip-path:url(#SVGID_23_);fill:url(#SVGID_24_);">
	<!ENTITY st18 "clip-path:url(#SVGID_26_);fill:url(#SVGID_27_);">
	<!ENTITY st19 "clip-path:url(#SVGID_41_);fill:url(#SVGID_42_);">
]>
<svg version="1.1" id="Layer_1" xmlns="http://www.w3.org/2000/svg" xmlns:xlink="http://www.w3.org/1999/xlink" x="0px" y="0px"
	 width="230px" height="230px" viewBox="0 0 230 200" style="enable-background:new 0 0 230 200;" xml:space="preserve">
<g>
	<defs>
		<path id="SVGID_1_" d="M177.995,13.961c-11.271,0.926-24.869,7.559-29.764,9.108c2.697,1.165,5.319,2.47,7.86,3.901
			c28.176-14.806,30.762-2.692,15.76,11.49c-7.48,7.071-19.331,14.655-34.564,19.675c-50.753,16.724-72.227-33.148-25.143-41.87
			c-22.481,0.755-42.716,10.363-57.331,25.453c13.49-11.29,29.522,8.914,6.09,27.556c-7.396,5.883-19.909,12.776-28.692,17.792
			c-3.266,1.866-6.016,3.472-7.796,4.672c-16.91,11.394-21.572,29.063-6.326,36.549c4.653,2.284,11.135,4.044,19.922,4.814
			c-0.769-1.788-1.478-3.607-2.124-5.457c-4.238-0.758-7.785-1.672-10.481-2.845c-12.931-5.631-2.64-15.06,5.904-20.86
			c2.118-1.439,4.13-2.655,5.653-3.534c25.805-14.898,30.224,2.279,20.828,18.06c-4.641,7.796-10.036,16.471-14.486,24.907
			c-2.759,5.231-5.154,10.371-6.781,15.154c-5.362,15.766,0.064,28.78,15.479,27.512c11.271-0.926,24.871-7.559,29.763-9.107
			c-2.695-1.166-5.318-2.47-7.858-3.902c-28.177,14.807-30.762,2.694-15.76-11.49c7.48-7.069,19.331-14.653,34.563-19.674
			c50.754-16.725,72.228,33.148,25.143,41.869c22.482-0.753,42.717-10.362,57.331-25.451c-13.49,11.289-29.521-8.915-6.089-27.557
			c7.396-5.883,19.909-12.775,28.69-17.793c3.268-1.865,6.018-3.472,7.797-4.671c16.909-11.393,21.572-29.063,6.325-36.549
			c-4.651-2.284-11.135-4.044-19.922-4.814c0.77,1.787,1.479,3.607,2.125,5.457c4.237,0.758,7.784,1.671,10.481,2.846
			c12.93,5.629,2.639,15.058-5.904,20.859c-2.119,1.439-4.131,2.655-5.654,3.533c-25.805,14.9-30.224-2.279-20.827-18.058
			c4.642-7.796,10.036-16.471,14.486-24.908c2.758-5.232,5.154-10.371,6.78-15.153c5.12-15.054,0.406-27.599-13.449-27.599
			C179.369,13.875,178.693,13.903,177.995,13.961"/>
	</defs>
	<clipPath id="SVGID_2_">
		<use xlink:href="#SVGID_1_"  style="overflow:visible;"/>
	</clipPath>
	
		<linearGradient id="SVGID_3_" gradientUnits="userSpaceOnUse" x1="-24.9756" y1="250.0332" x2="-23.9756" y2="250.0332" gradientTransform="matrix(136.2228 -153.2493 -155.1388 -137.9024 42238.8906 30829.375)">
		<stop  offset="0" style="stop-color:#CB93FE"/>
		<stop  offset="0.36" style="stop-color:#D18FFE"/>
		<stop  offset="0.83" style="stop-color:#5EBBFE"/>
		<stop  offset="1" style="stop-color:#56BEFD"/>
	</linearGradient>
	<polygon style="&st3;" points="-84.386,110.297 101.852,-99.219 314.387,89.703 128.148,299.219 	"/>
</g>
<g>
	<defs>
		<path id="SVGID_4_" d="M73.909,173.028c-5.701-3.215-10.987-7.077-15.76-11.49C43.146,175.723,45.731,187.835,73.909,173.028"/>
	</defs>
	<clipPath id="SVGID_5_">
		<use xlink:href="#SVGID_4_"  style="overflow:visible;"/>
	</clipPath>
	
		<linearGradient id="SVGID_6_" gradientUnits="userSpaceOnUse" x1="-25.0518" y1="249.5811" x2="-24.0518" y2="249.5811" gradientTransform="matrix(-21.6668 7.8772 6.8311 18.7895 -2174.4419 -4322.8477)">
		<stop  offset="0" style="stop-color:#9152FF"/>
		<stop  offset="1" style="stop-color:#310061"/>
	</linearGradient>
	<polygon style="&st6;" points="82.353,184.766 46.738,197.714 34.702,164.608 70.317,151.66 	"/>
</g>
<g>
	<defs>
		<path id="SVGID_7_" d="M25.407,124.8c2.696,1.173,6.242,2.086,10.479,2.845h0.002c-2.613-7.476-4.195-15.435-4.577-23.705
			C22.767,109.74,12.476,119.169,25.407,124.8"/>
	</defs>
	<clipPath id="SVGID_8_">
		<use xlink:href="#SVGID_7_"  style="overflow:visible;"/>
	</clipPath>
	
		<linearGradient id="SVGID_9_" gradientUnits="userSpaceOnUse" x1="-24.9536" y1="249.623" x2="-23.9536" y2="249.623" gradientTransform="matrix(-16.7721 1.9165 2.5412 22.2391 -1016.927 -5389.1392)">
		<stop  offset="0" style="stop-color:#422EF2"/>
		<stop  offset="1" style="stop-color:#1F0073"/>
	</linearGradient>
	<polygon style="&st15;" points="38.562,127.339 12.777,130.285 9.802,104.245 35.586,101.299 	"/>
</g>
<g>
	<defs>
		<path id="SVGID_10_" d="M156.092,26.97c5.701,3.215,10.986,7.078,15.76,11.49c10.153-9.598,12.25-18.249,3.812-18.249
			C171.633,20.211,165.198,22.185,156.092,26.97"/>
	</defs>
	<clipPath id="SVGID_11_">
		<use xlink:href="#SVGID_10_"  style="overflow:visible;"/>
	</clipPath>
	
		<linearGradient id="SVGID_12_" gradientUnits="userSpaceOnUse" x1="-24.7363" y1="250.252" x2="-23.736" y2="250.252" gradientTransform="matrix(12.7076 -15.1267 -15.5329 -13.0489 4364.5557 2929.0208)">
		<stop  offset="0" style="stop-color:#000BA8"/>
		<stop  offset="1" style="stop-color:#11002B"/>
	</linearGradient>
	<polygon style="&st4;" points="147.104,30.91 167.681,6.417 193.089,27.762 172.513,52.255 	"/>
</g>
<g>
	<defs>
		<path id="SVGID_13_" d="M198.689,96.061c8.543-5.801,18.834-15.23,5.904-20.859c-2.697-1.175-6.244-2.088-10.481-2.846
			C196.724,79.831,198.307,87.79,198.689,96.061"/>
	</defs>
	<clipPath id="SVGID_14_">
		<use xlink:href="#SVGID_13_"  style="overflow:visible;"/>
	</clipPath>
	
		<linearGradient id="SVGID_15_" gradientUnits="userSpaceOnUse" x1="-24.7173" y1="250.3701" x2="-23.7173" y2="250.3701" gradientTransform="matrix(11.8683 -14.1261 -13.6999 -11.5102 3921.8909 2625.6223)">
		<stop  offset="0" style="stop-color:#000BA8"/>
		<stop  offset="1" style="stop-color:#11002B"/>
	</linearGradient>
	<polygon style="&st5;" points="182.438,86.251 203.8,60.825 229.198,82.165 207.836,107.591 	"/>
</g>
<g>
	<defs>
		<path id="SVGID_16_" d="M92.711,141.864c-15.232,5.021-27.083,12.604-34.563,19.674c4.773,4.413,10.059,8.275,15.76,11.49
			c2.54,1.433,5.163,2.736,7.858,3.902c10.189,4.407,21.426,6.85,33.233,6.85c0.956,0,1.907-0.016,2.854-0.047
			c40.406-7.484,30.323-45.273-5.425-45.274C106.521,138.459,99.912,139.491,92.711,141.864"/>
	</defs>
	<clipPath id="SVGID_17_">
		<use xlink:href="#SVGID_16_"  style="overflow:visible;"/>
	</clipPath>
	
		<linearGradient id="SVGID_18_" gradientUnits="userSpaceOnUse" x1="-25.0239" y1="249.9541" x2="-24.0235" y2="249.9541" gradientTransform="matrix(-86.0622 45.08 37.1305 70.8859 -11288.8418 -16448.5312)">
		<stop  offset="0" style="stop-color:#653BCF"/>
		<stop  offset="0.42" style="stop-color:#855ADB"/>
		<stop  offset="0.81" style="stop-color:#B897FC"/>
		<stop  offset="1" style="stop-color:#BC9CFF"/>
	</linearGradient>
	<polygon style="&st7;" points="176.889,174.022 79.703,224.93 39.52,148.217 136.706,97.311 	"/>
</g>
<g>
	<defs>
		<path id="SVGID_19_" d="M144.868,69.608c-38.421,28.759-9.002,50.277,25.035,44.769c24.31-3.935,49.565-21.659,49.946-35.156
			c-1.419-2.989-4.021-5.586-7.94-7.509c-4.651-2.284-11.135-4.044-19.922-4.814c0.77,1.787,1.479,3.607,2.125,5.457
			c4.237,0.758,7.784,1.671,10.481,2.846c12.93,5.629,2.639,15.058-5.904,20.859c-2.119,1.439-4.131,2.655-5.654,3.533
			c-25.805,14.9-30.224-2.279-20.827-18.058c4.642-7.796,10.036-16.471,14.486-24.908c2.758-5.232,5.154-10.371,6.78-15.153
			c3.773-11.095,2.205-20.827-4.428-25.178C198.564,32.134,167.172,52.915,144.868,69.608"/>
	</defs>
	<clipPath id="SVGID_20_">
		<use xlink:href="#SVGID_19_"  style="overflow:visible;"/>
	</clipPath>
	
		<linearGradient id="SVGID_21_" gradientUnits="userSpaceOnUse" x1="-24.9614" y1="250.0488" x2="-23.9614" y2="250.0488" gradientTransform="matrix(86.8521 -106.8927 -105.5336 -85.7478 28681.3184 18888.1328)">
		<stop  offset="0" style="stop-color:#CFD5FF"/>
		<stop  offset="0.78" style="stop-color:#61D2FF"/>
		<stop  offset="1" style="stop-color:#57D8FF"/>
	</linearGradient>
	<polygon style="&st16;" points="55.749,78.692 151.542,-39.205 270.548,57.489 174.754,175.387 	"/>
</g>
<g>
	<defs>
		<path id="SVGID_22_" d="M60.096,85.624c-24.309,3.933-49.564,21.659-49.945,35.155c1.418,2.989,4.021,5.585,7.939,7.509
			c4.653,2.284,11.135,4.044,19.922,4.814c-0.769-1.788-1.478-3.607-2.124-5.457c-4.238-0.758-7.785-1.672-10.481-2.845
			c-12.931-5.631-2.64-15.06,5.904-20.86c2.118-1.439,4.13-2.655,5.653-3.534c25.805-14.898,30.224,2.279,20.828,18.06
			c-4.641,7.796-10.036,16.471-14.486,24.907c-2.759,5.231-5.154,10.371-6.781,15.154c-3.773,11.094-2.205,20.826,4.428,25.178
			c-9.517-15.84,21.876-36.619,44.178-53.312c34.349-25.709,14.478-45.632-14.44-45.632C67.261,84.759,63.705,85.039,60.096,85.624"
			/>
	</defs>
	<clipPath id="SVGID_23_">
		<use xlink:href="#SVGID_22_"  style="overflow:visible;"/>
	</clipPath>
	
		<linearGradient id="SVGID_24_" gradientUnits="userSpaceOnUse" x1="-25.0537" y1="249.9531" x2="-24.0537" y2="249.9531" gradientTransform="matrix(-42.1814 129.7854 109.9838 35.7457 -28462.4824 -5611.416)">
		<stop  offset="0" style="stop-color:#DAB4FF"/>
		<stop  offset="1" style="stop-color:#E5CFFE"/>
	</linearGradient>
	<polygon style="&st17;" points="148.565,94.212 109.034,215.843 -18.935,174.251 20.596,52.621 	"/>
</g>
<g>
	<defs>
		<path id="SVGID_25_" d="M169.097,130.726c-23.432,18.642-7.401,38.846,6.089,27.557c11.771-12.151,19.892-27.855,22.602-45.35
			C189.006,117.95,176.492,124.843,169.097,130.726"/>
	</defs>
	<clipPath id="SVGID_26_">
		<use xlink:href="#SVGID_25_"  style="overflow:visible;"/>
	</clipPath>
	
		<linearGradient id="SVGID_27_" gradientUnits="userSpaceOnUse" x1="-24.9404" y1="250.1113" x2="-23.9404" y2="250.1113" gradientTransform="matrix(51.7056 -44.0477 -43.8421 -51.4643 12406.0947 11931.876)">
		<stop  offset="0" style="stop-color:#BA28EB"/>
		<stop  offset="0.28" style="stop-color:#9F38EC"/>
		<stop  offset="0.78" style="stop-color:#1C87F1"/>
		<stop  offset="1" style="stop-color:#029DF7"/>
	</linearGradient>
	<polygon style="&st18;" points="117.705,136.751 175.868,87.202 225.747,145.753 167.584,195.302 	"/>
</g>
<g>
	<defs>
		<path id="SVGID_28_" d="M111.683,138.466c36.353-0.531,46.858,37.732,6.172,45.268c17.858-0.599,34.3-6.784,47.631-16.868
			c-9.806,5.652-12.173-3.873-19.156-13.397c-5.532-7.545-13.964-15.093-31.289-15.094
			C113.957,138.374,112.837,138.404,111.683,138.466"/>
	</defs>
	<clipPath id="SVGID_29_">
		<use xlink:href="#SVGID_28_"  style="overflow:visible;"/>
	</clipPath>
	
		<linearGradient id="SVGID_30_" gradientUnits="userSpaceOnUse" x1="-25.1309" y1="249.9297" x2="-24.1309" y2="249.9297" gradientTransform="matrix(-17.9969 52.4874 53.6839 18.4071 -13721.918 -3146.6624)">
		<stop  offset="0" style="stop-color:#FCBFFF"/>
		<stop  offset="0.31" style="stop-color:#FBBEFF"/>
		<stop  offset="1" style="stop-color:#DC9CFF"/>
	</linearGradient>
	<polygon style="&st0;" points="179.537,142.753 159.825,200.24 97.631,178.915 117.343,121.427 	"/>
</g>
<g>
	<defs>
		<path id="SVGID_31_" d="M64.515,33.132c9.805-5.651,12.171,3.873,19.155,13.399c5.879,8.018,15.03,16.037,34.647,15.001
			c-36.352,0.532-46.857-37.732-6.171-45.268C94.288,16.863,77.846,23.049,64.515,33.132"/>
	</defs>
	<clipPath id="SVGID_32_">
		<use xlink:href="#SVGID_31_"  style="overflow:visible;"/>
	</clipPath>
	
		<linearGradient id="SVGID_33_" gradientUnits="userSpaceOnUse" x1="-25.084" y1="249.8916" x2="-24.084" y2="249.8916" gradientTransform="matrix(-40.01 49.2479 49.7072 40.3831 -13313.3555 -8841.5869)">
		<stop  offset="0" style="stop-color:#CFD5FF"/>
		<stop  offset="0.78" style="stop-color:#61D2FF"/>
		<stop  offset="1" style="stop-color:#57D8FF"/>
	</linearGradient>
	<polygon style="&st8;" points="140.978,34.675 96.925,88.899 41.854,44.158 85.906,-10.066 	"/>
</g>
<g>
	<defs>
		<path id="SVGID_34_" d="M112.146,16.265c-40.686,7.537-30.181,45.8,6.171,45.268c5.719-0.082,12.074-1.125,18.971-3.397
			c15.233-5.02,27.083-12.604,34.564-19.675c-4.773-4.412-10.059-8.275-15.761-11.489c-2.54-1.432-5.163-2.736-7.859-3.902
			c-10.188-4.407-21.424-6.85-33.231-6.85C114.044,16.219,113.093,16.235,112.146,16.265"/>
	</defs>
	<clipPath id="SVGID_35_">
		<use xlink:href="#SVGID_34_"  style="overflow:visible;"/>
	</clipPath>
	
		<linearGradient id="SVGID_36_" gradientUnits="userSpaceOnUse" x1="-25.061" y1="249.9277" x2="-24.0606" y2="249.9277" gradientTransform="matrix(-55.2504 68.0015 69.6612 56.5989 -18642.5391 -12439.999)">
		<stop  offset="0" style="stop-color:#8FDCFF"/>
		<stop  offset="0.24" style="stop-color:#3BB7FF"/>
		<stop  offset="0.77" style="stop-color:#2B62D0"/>
		<stop  offset="1" style="stop-color:#0037AD"/>
	</linearGradient>
	<polygon style="&st9;" points="194.289,34.449 131.932,111.197 49.022,43.834 111.379,-32.914 	"/>
</g>
<g>
	<defs>
		<path id="SVGID_37_" d="M172.208,81.536c-9.396,15.779-4.978,32.957,20.827,18.058c1.524-0.878,3.535-2.094,5.654-3.533
			c-0.383-8.272-1.966-16.23-4.577-23.705c-0.646-1.85-1.355-3.669-2.125-5.457c-1.53-3.558-3.303-6.988-5.293-10.271
			C182.244,65.064,176.85,73.739,172.208,81.536"/>
	</defs>
	<clipPath id="SVGID_38_">
		<use xlink:href="#SVGID_37_"  style="overflow:visible;"/>
	</clipPath>
	
		<linearGradient id="SVGID_39_" gradientUnits="userSpaceOnUse" x1="-25.1387" y1="249.9297" x2="-24.1387" y2="249.9297" gradientTransform="matrix(-5.2742 58.0197 35.1694 3.197 -8738.6523 711.2656)">
		<stop  offset="0" style="stop-color:#8FDCFF"/>
		<stop  offset="0.24" style="stop-color:#3BB7FF"/>
		<stop  offset="0.77" style="stop-color:#2B62D0"/>
		<stop  offset="1" style="stop-color:#0037AD"/>
	</linearGradient>
	<polygon style="&st11;" points="203.906,57.102 198.396,117.728 157.595,114.019 163.105,53.393 	"/>
</g>
<g>
	<defs>
		<path id="SVGID_40_" d="M92.711,141.864c-15.232,5.021-27.083,12.604-34.563,19.674c2.999,2.774,6.202,5.329,9.582,7.645
			c34.111-28.374,84.829-11.551,68.894,6.656c16.389-13.563,4.183-37.378-24.194-37.38
			C106.52,138.459,99.913,139.491,92.711,141.864"/>
	</defs>
	<clipPath id="SVGID_41_">
		<use xlink:href="#SVGID_40_"  style="overflow:visible;"/>
	</clipPath>
	
		<linearGradient id="SVGID_42_" gradientUnits="userSpaceOnUse" x1="-25.0474" y1="249.9629" x2="-24.0474" y2="249.9629" gradientTransform="matrix(-69.9445 99.5313 97.2867 68.3671 -25930.7949 -14486.6289)">
		<stop  offset="0" style="stop-color:#1B003D"/>
		<stop  offset="0.13" style="stop-color:#1F054F"/>
		<stop  offset="0.42" style="stop-color:#3822B7"/>
		<stop  offset="0.67" style="stop-color:#A281EF"/>
		<stop  offset="1" style="stop-color:#B18FF7"/>
	</linearGradient>
	<polygon style="&st19;" points="170.597,150.816 121.652,220.465 40.564,163.481 89.509,93.833 	"/>
</g>
<g>
	<defs>
		<path id="SVGID_43_" d="M169.097,130.726c-13.536,10.769-13.903,22.059-9.198,27.498c3.097-14.725,22.213-25.908,34.654-31.874
			c1.433-4.327,2.521-8.811,3.234-13.417C189.006,117.95,176.492,124.843,169.097,130.726"/>
	</defs>
	<clipPath id="SVGID_44_">
		<use xlink:href="#SVGID_43_"  style="overflow:visible;"/>
	</clipPath>
	
		<linearGradient id="SVGID_45_" gradientUnits="userSpaceOnUse" x1="-25.1289" y1="249.916" x2="-24.1284" y2="249.916" gradientTransform="matrix(-17.3664 54.409 47.1664 15.0547 -12038.7686 -2287.0791)">
		<stop  offset="0" style="stop-color:#002EAD"/>
		<stop  offset="0.74" style="stop-color:#8825DD"/>
		<stop  offset="1" style="stop-color:#8F24E0"/>
	</linearGradient>
	<polygon style="&st1;" points="210.907,117.12 193.85,170.562 142.074,154.036 159.132,100.594 	"/>
</g>
<g>
	<defs>
		<path id="SVGID_46_" d="M172.208,81.536c-8.565,14.385-5.65,29.933,14.484,21.279c-12.889-2.744-3.296-24.205,4.916-36.783
			c-1.442-3.248-3.086-6.389-4.914-9.404C182.244,65.064,176.85,73.739,172.208,81.536"/>
	</defs>
	<clipPath id="SVGID_47_">
		<use xlink:href="#SVGID_46_"  style="overflow:visible;"/>
	</clipPath>
	
		<linearGradient id="SVGID_48_" gradientUnits="userSpaceOnUse" x1="-25.1465" y1="249.9121" x2="-24.147" y2="249.9121" gradientTransform="matrix(-4.9889 54.8456 28.0573 2.5522 -6956.9131 794.7512)">
		<stop  offset="0" style="stop-color:#30A1F2"/>
		<stop  offset="0.56" style="stop-color:#2B62D0"/>
		<stop  offset="1" style="stop-color:#0037AD"/>
	</linearGradient>
	<polygon style="&st2;" points="196.557,57.078 191.379,113.991 158.695,111.019 163.872,54.104 	"/>
</g>
<g>
	<defs>
		<path id="SVGID_49_" d="M54.813,41.718C43.044,53.87,34.922,69.574,32.211,87.067c8.783-5.018,21.296-11.91,28.692-17.792
			c18.739-14.909,12.238-30.814,1.984-30.816C60.319,38.459,57.516,39.457,54.813,41.718"/>
	</defs>
	<clipPath id="SVGID_50_">
		<use xlink:href="#SVGID_49_"  style="overflow:visible;"/>
	</clipPath>
	
		<linearGradient id="SVGID_51_" gradientUnits="userSpaceOnUse" x1="-24.8877" y1="250.0996" x2="-23.8877" y2="250.0996" gradientTransform="matrix(23.9933 -56.9826 -50.1098 -21.0994 13172.9961 3951.293)">
		<stop  offset="0" style="stop-color:#266BFF"/>
		<stop  offset="1" style="stop-color:#0022A8"/>
	</linearGradient>
	<polygon style="&st10;" points="14.827,79.747 39.354,21.496 97.027,45.78 72.5,104.031 	"/>
</g>
<g>
	<defs>
		<path id="SVGID_52_" d="M36.963,100.405c-1.523,0.878-3.535,2.094-5.654,3.534c0.382,8.27,1.966,16.231,4.577,23.705
			c0.647,1.849,1.356,3.669,2.125,5.457c1.533,3.558,3.304,6.989,5.294,10.271c4.45-8.437,9.844-17.111,14.487-24.907
			c6.855-11.514,6.356-23.771-4.438-23.771C49.355,94.694,43.94,96.377,36.963,100.405"/>
	</defs>
	<clipPath id="SVGID_53_">
		<use xlink:href="#SVGID_52_"  style="overflow:visible;"/>
	</clipPath>
	
		<linearGradient id="SVGID_54_" gradientUnits="userSpaceOnUse" x1="-24.9048" y1="250.082" x2="-23.9048" y2="250.082" gradientTransform="matrix(35.0823 -46.7751 -44.5566 -33.4184 12046.5605 7335.4028)">
		<stop  offset="0" style="stop-color:#8F88F8"/>
		<stop  offset="1" style="stop-color:#4859F2"/>
	</linearGradient>
	<polygon style="&st12;" points="7.944,125.848 43.312,78.692 88.013,112.219 52.646,159.375 	"/>
</g>
<g>
	<defs>
		<path id="SVGID_55_" d="M36.963,100.405c-1.523,0.879-3.535,2.095-5.653,3.534c0.179,3.875,0.622,7.682,1.31,11.401
			c8.785-6.173,25.376-13.311,28.693-4.765c2.561-8.605,0.357-15.882-7.959-15.882C49.354,94.694,43.94,96.377,36.963,100.405"/>
	</defs>
	<clipPath id="SVGID_56_">
		<use xlink:href="#SVGID_55_"  style="overflow:visible;"/>
	</clipPath>
	
		<linearGradient id="SVGID_57_" gradientUnits="userSpaceOnUse" x1="-25.1104" y1="249.8184" x2="-24.1104" y2="249.8184" gradientTransform="matrix(-25.2899 18.3913 17.2616 23.7364 -4887.5537 -5371.749)">
		<stop  offset="0" style="stop-color:#060FB8"/>
		<stop  offset="0.14" style="stop-color:#0F18BD"/>
		<stop  offset="0.75" style="stop-color:#6A6EF3"/>
		<stop  offset="1" style="stop-color:#7074F6"/>
	</linearGradient>
	<polygon style="&st13;" points="73.695,108.198 42.575,130.83 21.49,101.836 52.61,79.205 	"/>
</g>
<g>
	<defs>
		<path id="SVGID_58_" d="M54.813,41.717c-1.387,1.433-2.723,2.913-4.006,4.441c11.897-6.848,20.801,13.285,10.096,23.117
			c18.739-14.909,12.238-30.815,1.984-30.817C60.319,38.458,57.517,39.456,54.813,41.717"/>
	</defs>
	<clipPath id="SVGID_59_">
		<use xlink:href="#SVGID_58_"  style="overflow:visible;"/>
	</clipPath>
	
		<linearGradient id="SVGID_60_" gradientUnits="userSpaceOnUse" x1="-25.106" y1="249.834" x2="-24.1064" y2="249.834" gradientTransform="matrix(-27.3769 21.0573 21.4274 27.858 -5963.8315 -6386.1987)">
		<stop  offset="0" style="stop-color:#001A69"/>
		<stop  offset="0.69" style="stop-color:#0832BA"/>
		<stop  offset="1" style="stop-color:#0933BC"/>
	</linearGradient>
	<polygon style="&st14;" points="94.535,57.82 61.526,83.21 35.915,49.913 68.924,24.523 	"/>
</g>
</svg>
