<svg width="14" height="14" viewBox="0 0 14 14" fill="none" xmlns="http://www.w3.org/2000/svg">
<g opacity="0.8" clip-path="url(#clip0_2037_1511)">
<path d="M12.5748 4.36142C12.5748 4.2301 12.5723 4.10025 12.5665 3.9713C13.1279 3.553 13.615 3.02938 14.0002 2.4302C13.477 2.6656 12.9203 2.8179 12.3502 2.88161C12.9436 2.51645 13.3987 1.93245 13.6137 1.23163C13.0581 1.56858 12.4435 1.80948 11.7901 1.935C11.2665 1.33925 10.5194 0.959791 9.69339 0.945691C8.10707 0.919465 6.82114 2.26 6.82114 3.93947C6.82114 4.17819 6.8461 4.4097 6.89566 4.63326C4.50687 4.47954 2.39009 3.23612 0.974142 1.36167C0.727075 1.81076 0.585329 2.33562 0.585329 2.89808C0.585329 3.96192 1.09243 4.90744 1.86292 5.46539C1.39123 5.44405 0.949374 5.30119 0.56182 5.06697V5.10603C0.56182 6.59288 1.55221 7.83864 2.86635 8.1293C2.62543 8.19782 2.37133 8.23348 2.10999 8.2322C1.92841 8.23126 1.74742 8.21144 1.56994 8.17305C1.9351 9.3915 2.99637 10.2817 4.25279 10.3113C3.26946 11.1267 2.03077 11.6137 0.685909 11.6103C0.454029 11.6103 0.224889 11.5947 0.000244141 11.5665C1.27188 12.4388 2.78135 12.9469 4.40402 12.9469C9.68616 12.9481 12.5748 8.35048 12.5748 4.36142Z" fill="#616161"/>
</g>
<defs>
<clipPath id="clip0_2037_1511">
<rect width="14" height="14" fill="white"/>
</clipPath>
</defs>
</svg>
